<?xml version="1.0" encoding="UTF-8" standalone="no"?><!DOCTYPE svg PUBLIC "-//W3C//DTD SVG 1.1//EN" "http://www.w3.org/Graphics/SVG/1.1/DTD/svg11.dtd"><!-- Generated by graphviz version 2.40.1 (20161225.0304)
 --><!-- Title: fbt Pages: 1 --><svg xmlns="http://www.w3.org/2000/svg" xmlns:xlink="http://www.w3.org/1999/xlink" width="926pt" height="404pt" viewBox="0.00 0.00 926.00 404.00">
<g id="graph0" class="graph" transform="scale(1 1) rotate(0) translate(4 400)">
<title>fbt</title>
<polygon fill="#ffffff" stroke="transparent" points="-4,4 -4,-400 922,-400 922,4 -4,4"/>
<!-- 0 -->
<g id="node1" class="node">
<title>0</title>
<ellipse fill="none" stroke="#000000" cx="567" cy="-378" rx="27" ry="18"/>
<text text-anchor="middle" x="567" y="-373.8" font-family="Times,serif" font-size="14.00" fill="#000000">9</text>
</g>
<!-- 1 -->
<g id="node2" class="node">
<title>1</title>
<ellipse fill="none" stroke="#000000" cx="531" cy="-306" rx="27" ry="18"/>
<text text-anchor="middle" x="531" y="-301.8" font-family="Times,serif" font-size="14.00" fill="#000000">7</text>
</g>
<!-- 0&#45;&gt;1 -->
<g id="edge1" class="edge">
<title>0-&gt;1</title>
<path fill="none" stroke="#000000" d="M558.2854,-360.5708C554.0403,-352.0807 548.8464,-341.6929 544.1337,-332.2674"/>
<polygon fill="#000000" stroke="#000000" points="547.237,-330.6477 539.6343,-323.2687 540.976,-333.7782 547.237,-330.6477"/>
</g>
<!-- 2 -->
<g id="node3" class="node">
<title>2</title>
<ellipse fill="none" stroke="#000000" cx="603" cy="-306" rx="27" ry="18"/>
<text text-anchor="middle" x="603" y="-301.8" font-family="Times,serif" font-size="14.00" fill="#000000">0</text>
</g>
<!-- 0&#45;&gt;2 -->
<g id="edge2" class="edge">
<title>0-&gt;2</title>
<path fill="none" stroke="#000000" d="M575.7146,-360.5708C579.9597,-352.0807 585.1536,-341.6929 589.8663,-332.2674"/>
<polygon fill="#000000" stroke="#000000" points="593.024,-333.7782 594.3657,-323.2687 586.763,-330.6477 593.024,-333.7782"/>
</g>
<!-- 3 -->
<g id="node4" class="node">
<title>3</title>
<ellipse fill="none" stroke="#000000" cx="279" cy="-234" rx="27" ry="18"/>
<text text-anchor="middle" x="279" y="-229.8" font-family="Times,serif" font-size="14.00" fill="#000000">1</text>
</g>
<!-- 1&#45;&gt;3 -->
<g id="edge3" class="edge">
<title>1-&gt;3</title>
<path fill="none" stroke="#000000" d="M505.916,-298.8331C460.6316,-285.8948 365.1586,-258.6167 313.6666,-243.9048"/>
<polygon fill="#000000" stroke="#000000" points="314.5594,-240.5198 303.9826,-241.1379 312.6363,-247.2505 314.5594,-240.5198"/>
</g>
<!-- 4 -->
<g id="node5" class="node">
<title>4</title>
<ellipse fill="none" stroke="#000000" cx="531" cy="-234" rx="27" ry="18"/>
<text text-anchor="middle" x="531" y="-229.8" font-family="Times,serif" font-size="14.00" fill="#000000">7</text>
</g>
<!-- 1&#45;&gt;4 -->
<g id="edge4" class="edge">
<title>1-&gt;4</title>
<path fill="none" stroke="#000000" d="M531,-287.8314C531,-280.131 531,-270.9743 531,-262.4166"/>
<polygon fill="#000000" stroke="#000000" points="534.5001,-262.4132 531,-252.4133 527.5001,-262.4133 534.5001,-262.4132"/>
</g>
<!-- 5 -->
<g id="node6" class="node">
<title>5</title>
<ellipse fill="none" stroke="#00ff00" cx="603" cy="-234" rx="27" ry="18"/>
<text text-anchor="middle" x="603" y="-229.8" font-family="Times,serif" font-size="14.00" fill="#000000">No</text>
</g>
<!-- 2&#45;&gt;5 -->
<g id="edge5" class="edge">
<title>2-&gt;5</title>
<path fill="none" stroke="#000000" d="M603,-287.8314C603,-280.131 603,-270.9743 603,-262.4166"/>
<polygon fill="#000000" stroke="#000000" points="606.5001,-262.4132 603,-252.4133 599.5001,-262.4133 606.5001,-262.4132"/>
</g>
<!-- 6 -->
<g id="node7" class="node">
<title>6</title>
<ellipse fill="none" stroke="#000000" cx="675" cy="-234" rx="27" ry="18"/>
<text text-anchor="middle" x="675" y="-229.8" font-family="Times,serif" font-size="14.00" fill="#000000">9</text>
</g>
<!-- 2&#45;&gt;6 -->
<g id="edge6" class="edge">
<title>2-&gt;6</title>
<path fill="none" stroke="#000000" d="M618.2693,-290.7307C628.197,-280.803 641.3153,-267.6847 652.4363,-256.5637"/>
<polygon fill="#000000" stroke="#000000" points="655.1564,-258.7933 659.7527,-249.2473 650.2067,-253.8436 655.1564,-258.7933"/>
</g>
<!-- 7 -->
<g id="node8" class="node">
<title>7</title>
<ellipse fill="none" stroke="#000000" cx="171" cy="-162" rx="27" ry="18"/>
<text text-anchor="middle" x="171" y="-157.8" font-family="Times,serif" font-size="14.00" fill="#000000">4</text>
</g>
<!-- 3&#45;&gt;7 -->
<g id="edge7" class="edge">
<title>3-&gt;7</title>
<path fill="none" stroke="#000000" d="M259.6918,-221.1278C242.6445,-209.763 217.5981,-193.0654 198.4656,-180.3104"/>
<polygon fill="#000000" stroke="#000000" points="200.4031,-177.3956 190.1411,-174.7607 196.5201,-183.2199 200.4031,-177.3956"/>
</g>
<!-- 8 -->
<g id="node9" class="node">
<title>8</title>
<ellipse fill="none" stroke="#000000" cx="279" cy="-162" rx="27" ry="18"/>
<text text-anchor="middle" x="279" y="-157.8" font-family="Times,serif" font-size="14.00" fill="#000000">6</text>
</g>
<!-- 3&#45;&gt;8 -->
<g id="edge8" class="edge">
<title>3-&gt;8</title>
<path fill="none" stroke="#000000" d="M279,-215.8314C279,-208.131 279,-198.9743 279,-190.4166"/>
<polygon fill="#000000" stroke="#000000" points="282.5001,-190.4132 279,-180.4133 275.5001,-190.4133 282.5001,-190.4132"/>
</g>
<!-- 9 -->
<g id="node10" class="node">
<title>9</title>
<ellipse fill="none" stroke="#000000" cx="531" cy="-162" rx="27" ry="18"/>
<text text-anchor="middle" x="531" y="-157.8" font-family="Times,serif" font-size="14.00" fill="#000000">4</text>
</g>
<!-- 4&#45;&gt;9 -->
<g id="edge9" class="edge">
<title>4-&gt;9</title>
<path fill="none" stroke="#000000" d="M531,-215.8314C531,-208.131 531,-198.9743 531,-190.4166"/>
<polygon fill="#000000" stroke="#000000" points="534.5001,-190.4132 531,-180.4133 527.5001,-190.4133 534.5001,-190.4132"/>
</g>
<!-- 10 -->
<g id="node11" class="node">
<title>10</title>
<ellipse fill="none" stroke="#ff0000" cx="603" cy="-162" rx="27" ry="18"/>
<text text-anchor="middle" x="603" y="-157.8" font-family="Times,serif" font-size="14.00" fill="#000000">Yes</text>
</g>
<!-- 4&#45;&gt;10 -->
<g id="edge10" class="edge">
<title>4-&gt;10</title>
<path fill="none" stroke="#000000" d="M546.2693,-218.7307C556.197,-208.803 569.3153,-195.6847 580.4363,-184.5637"/>
<polygon fill="#000000" stroke="#000000" points="583.1564,-186.7933 587.7527,-177.2473 578.2067,-181.8436 583.1564,-186.7933"/>
</g>
<!-- 11 -->
<g id="node12" class="node">
<title>11</title>
<ellipse fill="none" stroke="#000000" cx="675" cy="-162" rx="27" ry="18"/>
<text text-anchor="middle" x="675" y="-157.8" font-family="Times,serif" font-size="14.00" fill="#000000">3</text>
</g>
<!-- 6&#45;&gt;11 -->
<g id="edge11" class="edge">
<title>6-&gt;11</title>
<path fill="none" stroke="#000000" d="M675,-215.8314C675,-208.131 675,-198.9743 675,-190.4166"/>
<polygon fill="#000000" stroke="#000000" points="678.5001,-190.4132 675,-180.4133 671.5001,-190.4133 678.5001,-190.4132"/>
</g>
<!-- 12 -->
<g id="node13" class="node">
<title>12</title>
<ellipse fill="none" stroke="#000000" cx="819" cy="-162" rx="27" ry="18"/>
<text text-anchor="middle" x="819" y="-157.8" font-family="Times,serif" font-size="14.00" fill="#000000">3</text>
</g>
<!-- 6&#45;&gt;12 -->
<g id="edge12" class="edge">
<title>6-&gt;12</title>
<path fill="none" stroke="#000000" d="M696.8705,-223.0647C721.2222,-210.8889 760.762,-191.119 788.2285,-177.3858"/>
<polygon fill="#000000" stroke="#000000" points="790.0165,-180.4049 797.3955,-172.8022 786.886,-174.1439 790.0165,-180.4049"/>
</g>
<!-- 13 -->
<g id="node14" class="node">
<title>13</title>
<ellipse fill="none" stroke="#000000" cx="99" cy="-90" rx="27" ry="18"/>
<text text-anchor="middle" x="99" y="-85.8" font-family="Times,serif" font-size="14.00" fill="#000000">3</text>
</g>
<!-- 7&#45;&gt;13 -->
<g id="edge13" class="edge">
<title>7-&gt;13</title>
<path fill="none" stroke="#000000" d="M155.7307,-146.7307C145.803,-136.803 132.6847,-123.6847 121.5637,-112.5637"/>
<polygon fill="#000000" stroke="#000000" points="123.7933,-109.8436 114.2473,-105.2473 118.8436,-114.7933 123.7933,-109.8436"/>
</g>
<!-- 14 -->
<g id="node15" class="node">
<title>14</title>
<ellipse fill="none" stroke="#ff0000" cx="171" cy="-90" rx="27" ry="18"/>
<text text-anchor="middle" x="171" y="-85.8" font-family="Times,serif" font-size="14.00" fill="#000000">Yes</text>
</g>
<!-- 7&#45;&gt;14 -->
<g id="edge14" class="edge">
<title>7-&gt;14</title>
<path fill="none" stroke="#000000" d="M171,-143.8314C171,-136.131 171,-126.9743 171,-118.4166"/>
<polygon fill="#000000" stroke="#000000" points="174.5001,-118.4132 171,-108.4133 167.5001,-118.4133 174.5001,-118.4132"/>
</g>
<!-- 15 -->
<g id="node16" class="node">
<title>15</title>
<ellipse fill="none" stroke="#000000" cx="243" cy="-90" rx="27" ry="18"/>
<text text-anchor="middle" x="243" y="-85.8" font-family="Times,serif" font-size="14.00" fill="#000000">9</text>
</g>
<!-- 8&#45;&gt;15 -->
<g id="edge15" class="edge">
<title>8-&gt;15</title>
<path fill="none" stroke="#000000" d="M270.2854,-144.5708C266.0403,-136.0807 260.8464,-125.6929 256.1337,-116.2674"/>
<polygon fill="#000000" stroke="#000000" points="259.237,-114.6477 251.6343,-107.2687 252.976,-117.7782 259.237,-114.6477"/>
</g>
<!-- 16 -->
<g id="node17" class="node">
<title>16</title>
<ellipse fill="none" stroke="#000000" cx="315" cy="-90" rx="27" ry="18"/>
<text text-anchor="middle" x="315" y="-85.8" font-family="Times,serif" font-size="14.00" fill="#000000">3</text>
</g>
<!-- 8&#45;&gt;16 -->
<g id="edge16" class="edge">
<title>8-&gt;16</title>
<path fill="none" stroke="#000000" d="M287.7146,-144.5708C291.9597,-136.0807 297.1536,-125.6929 301.8663,-116.2674"/>
<polygon fill="#000000" stroke="#000000" points="305.024,-117.7782 306.3657,-107.2687 298.763,-114.6477 305.024,-117.7782"/>
</g>
<!-- 17 -->
<g id="node18" class="node">
<title>17</title>
<ellipse fill="none" stroke="#000000" cx="531" cy="-90" rx="27" ry="18"/>
<text text-anchor="middle" x="531" y="-85.8" font-family="Times,serif" font-size="14.00" fill="#000000">0</text>
</g>
<!-- 9&#45;&gt;17 -->
<g id="edge17" class="edge">
<title>9-&gt;17</title>
<path fill="none" stroke="#000000" d="M531,-143.8314C531,-136.131 531,-126.9743 531,-118.4166"/>
<polygon fill="#000000" stroke="#000000" points="534.5001,-118.4132 531,-108.4133 527.5001,-118.4133 534.5001,-118.4132"/>
</g>
<!-- 18 -->
<g id="node19" class="node">
<title>18</title>
<ellipse fill="none" stroke="#000000" cx="603" cy="-90" rx="27" ry="18"/>
<text text-anchor="middle" x="603" y="-85.8" font-family="Times,serif" font-size="14.00" fill="#000000">8</text>
</g>
<!-- 9&#45;&gt;18 -->
<g id="edge18" class="edge">
<title>9-&gt;18</title>
<path fill="none" stroke="#000000" d="M546.2693,-146.7307C556.197,-136.803 569.3153,-123.6847 580.4363,-112.5637"/>
<polygon fill="#000000" stroke="#000000" points="583.1564,-114.7933 587.7527,-105.2473 578.2067,-109.8436 583.1564,-114.7933"/>
</g>
<!-- 19 -->
<g id="node20" class="node">
<title>19</title>
<ellipse fill="none" stroke="#ff0000" cx="675" cy="-90" rx="27" ry="18"/>
<text text-anchor="middle" x="675" y="-85.8" font-family="Times,serif" font-size="14.00" fill="#000000">Yes</text>
</g>
<!-- 11&#45;&gt;19 -->
<g id="edge19" class="edge">
<title>11-&gt;19</title>
<path fill="none" stroke="#000000" d="M675,-143.8314C675,-136.131 675,-126.9743 675,-118.4166"/>
<polygon fill="#000000" stroke="#000000" points="678.5001,-118.4132 675,-108.4133 671.5001,-118.4133 678.5001,-118.4132"/>
</g>
<!-- 20 -->
<g id="node21" class="node">
<title>20</title>
<ellipse fill="none" stroke="#00ff00" cx="747" cy="-90" rx="27" ry="18"/>
<text text-anchor="middle" x="747" y="-85.8" font-family="Times,serif" font-size="14.00" fill="#000000">No</text>
</g>
<!-- 11&#45;&gt;20 -->
<g id="edge20" class="edge">
<title>11-&gt;20</title>
<path fill="none" stroke="#000000" d="M690.2693,-146.7307C700.197,-136.803 713.3153,-123.6847 724.4363,-112.5637"/>
<polygon fill="#000000" stroke="#000000" points="727.1564,-114.7933 731.7527,-105.2473 722.2067,-109.8436 727.1564,-114.7933"/>
</g>
<!-- 21 -->
<g id="node22" class="node">
<title>21</title>
<ellipse fill="none" stroke="#00ff00" cx="819" cy="-90" rx="27" ry="18"/>
<text text-anchor="middle" x="819" y="-85.8" font-family="Times,serif" font-size="14.00" fill="#000000">No</text>
</g>
<!-- 12&#45;&gt;21 -->
<g id="edge21" class="edge">
<title>12-&gt;21</title>
<path fill="none" stroke="#000000" d="M819,-143.8314C819,-136.131 819,-126.9743 819,-118.4166"/>
<polygon fill="#000000" stroke="#000000" points="822.5001,-118.4132 819,-108.4133 815.5001,-118.4133 822.5001,-118.4132"/>
</g>
<!-- 22 -->
<g id="node23" class="node">
<title>22</title>
<ellipse fill="none" stroke="#ff0000" cx="891" cy="-90" rx="27" ry="18"/>
<text text-anchor="middle" x="891" y="-85.8" font-family="Times,serif" font-size="14.00" fill="#000000">Yes</text>
</g>
<!-- 12&#45;&gt;22 -->
<g id="edge22" class="edge">
<title>12-&gt;22</title>
<path fill="none" stroke="#000000" d="M834.2693,-146.7307C844.197,-136.803 857.3153,-123.6847 868.4363,-112.5637"/>
<polygon fill="#000000" stroke="#000000" points="871.1564,-114.7933 875.7527,-105.2473 866.2067,-109.8436 871.1564,-114.7933"/>
</g>
<!-- 23 -->
<g id="node24" class="node">
<title>23</title>
<ellipse fill="none" stroke="#00ff00" cx="27" cy="-18" rx="27" ry="18"/>
<text text-anchor="middle" x="27" y="-13.8" font-family="Times,serif" font-size="14.00" fill="#000000">No</text>
</g>
<!-- 13&#45;&gt;23 -->
<g id="edge23" class="edge">
<title>13-&gt;23</title>
<path fill="none" stroke="#000000" d="M83.7307,-74.7307C73.803,-64.803 60.6847,-51.6847 49.5637,-40.5637"/>
<polygon fill="#000000" stroke="#000000" points="51.7933,-37.8436 42.2473,-33.2473 46.8436,-42.7933 51.7933,-37.8436"/>
</g>
<!-- 24 -->
<g id="node25" class="node">
<title>24</title>
<ellipse fill="none" stroke="#00ff00" cx="99" cy="-18" rx="27" ry="18"/>
<text text-anchor="middle" x="99" y="-13.8" font-family="Times,serif" font-size="14.00" fill="#000000">No</text>
</g>
<!-- 13&#45;&gt;24 -->
<g id="edge24" class="edge">
<title>13-&gt;24</title>
<path fill="none" stroke="#000000" d="M99,-71.8314C99,-64.131 99,-54.9743 99,-46.4166"/>
<polygon fill="#000000" stroke="#000000" points="102.5001,-46.4132 99,-36.4133 95.5001,-46.4133 102.5001,-46.4132"/>
</g>
<!-- 25 -->
<g id="node26" class="node">
<title>25</title>
<ellipse fill="none" stroke="#ff0000" cx="171" cy="-18" rx="27" ry="18"/>
<text text-anchor="middle" x="171" y="-13.8" font-family="Times,serif" font-size="14.00" fill="#000000">Yes</text>
</g>
<!-- 15&#45;&gt;25 -->
<g id="edge25" class="edge">
<title>15-&gt;25</title>
<path fill="none" stroke="#000000" d="M227.7307,-74.7307C217.803,-64.803 204.6847,-51.6847 193.5637,-40.5637"/>
<polygon fill="#000000" stroke="#000000" points="195.7933,-37.8436 186.2473,-33.2473 190.8436,-42.7933 195.7933,-37.8436"/>
</g>
<!-- 26 -->
<g id="node27" class="node">
<title>26</title>
<ellipse fill="none" stroke="#ff0000" cx="243" cy="-18" rx="27" ry="18"/>
<text text-anchor="middle" x="243" y="-13.8" font-family="Times,serif" font-size="14.00" fill="#000000">Yes</text>
</g>
<!-- 15&#45;&gt;26 -->
<g id="edge26" class="edge">
<title>15-&gt;26</title>
<path fill="none" stroke="#000000" d="M243,-71.8314C243,-64.131 243,-54.9743 243,-46.4166"/>
<polygon fill="#000000" stroke="#000000" points="246.5001,-46.4132 243,-36.4133 239.5001,-46.4133 246.5001,-46.4132"/>
</g>
<!-- 27 -->
<g id="node28" class="node">
<title>27</title>
<ellipse fill="none" stroke="#00ff00" cx="315" cy="-18" rx="27" ry="18"/>
<text text-anchor="middle" x="315" y="-13.8" font-family="Times,serif" font-size="14.00" fill="#000000">No</text>
</g>
<!-- 16&#45;&gt;27 -->
<g id="edge27" class="edge">
<title>16-&gt;27</title>
<path fill="none" stroke="#000000" d="M315,-71.8314C315,-64.131 315,-54.9743 315,-46.4166"/>
<polygon fill="#000000" stroke="#000000" points="318.5001,-46.4132 315,-36.4133 311.5001,-46.4133 318.5001,-46.4132"/>
</g>
<!-- 28 -->
<g id="node29" class="node">
<title>28</title>
<ellipse fill="none" stroke="#00ff00" cx="387" cy="-18" rx="27" ry="18"/>
<text text-anchor="middle" x="387" y="-13.8" font-family="Times,serif" font-size="14.00" fill="#000000">No</text>
</g>
<!-- 16&#45;&gt;28 -->
<g id="edge28" class="edge">
<title>16-&gt;28</title>
<path fill="none" stroke="#000000" d="M330.2693,-74.7307C340.197,-64.803 353.3153,-51.6847 364.4363,-40.5637"/>
<polygon fill="#000000" stroke="#000000" points="367.1564,-42.7933 371.7527,-33.2473 362.2067,-37.8436 367.1564,-42.7933"/>
</g>
<!-- 29 -->
<g id="node30" class="node">
<title>29</title>
<ellipse fill="none" stroke="#00ff00" cx="459" cy="-18" rx="27" ry="18"/>
<text text-anchor="middle" x="459" y="-13.8" font-family="Times,serif" font-size="14.00" fill="#000000">No</text>
</g>
<!-- 17&#45;&gt;29 -->
<g id="edge29" class="edge">
<title>17-&gt;29</title>
<path fill="none" stroke="#000000" d="M515.7307,-74.7307C505.803,-64.803 492.6847,-51.6847 481.5637,-40.5637"/>
<polygon fill="#000000" stroke="#000000" points="483.7933,-37.8436 474.2473,-33.2473 478.8436,-42.7933 483.7933,-37.8436"/>
</g>
<!-- 30 -->
<g id="node31" class="node">
<title>30</title>
<ellipse fill="none" stroke="#00ff00" cx="531" cy="-18" rx="27" ry="18"/>
<text text-anchor="middle" x="531" y="-13.8" font-family="Times,serif" font-size="14.00" fill="#000000">No</text>
</g>
<!-- 17&#45;&gt;30 -->
<g id="edge30" class="edge">
<title>17-&gt;30</title>
<path fill="none" stroke="#000000" d="M531,-71.8314C531,-64.131 531,-54.9743 531,-46.4166"/>
<polygon fill="#000000" stroke="#000000" points="534.5001,-46.4132 531,-36.4133 527.5001,-46.4133 534.5001,-46.4132"/>
</g>
<!-- 31 -->
<g id="node32" class="node">
<title>31</title>
<ellipse fill="none" stroke="#00ff00" cx="603" cy="-18" rx="27" ry="18"/>
<text text-anchor="middle" x="603" y="-13.8" font-family="Times,serif" font-size="14.00" fill="#000000">No</text>
</g>
<!-- 18&#45;&gt;31 -->
<g id="edge31" class="edge">
<title>18-&gt;31</title>
<path fill="none" stroke="#000000" d="M603,-71.8314C603,-64.131 603,-54.9743 603,-46.4166"/>
<polygon fill="#000000" stroke="#000000" points="606.5001,-46.4132 603,-36.4133 599.5001,-46.4133 606.5001,-46.4132"/>
</g>
<!-- 32 -->
<g id="node33" class="node">
<title>32</title>
<ellipse fill="none" stroke="#ff0000" cx="675" cy="-18" rx="27" ry="18"/>
<text text-anchor="middle" x="675" y="-13.8" font-family="Times,serif" font-size="14.00" fill="#000000">Yes</text>
</g>
<!-- 18&#45;&gt;32 -->
<g id="edge32" class="edge">
<title>18-&gt;32</title>
<path fill="none" stroke="#000000" d="M618.2693,-74.7307C628.197,-64.803 641.3153,-51.6847 652.4363,-40.5637"/>
<polygon fill="#000000" stroke="#000000" points="655.1564,-42.7933 659.7527,-33.2473 650.2067,-37.8436 655.1564,-42.7933"/>
</g>
</g>
</svg>