<?xml version="1.0" encoding="UTF-8" standalone="no"?><!DOCTYPE svg PUBLIC "-//W3C//DTD SVG 1.1//EN" "http://www.w3.org/Graphics/SVG/1.1/DTD/svg11.dtd"><!-- Generated by graphviz version 2.40.1 (20161225.0304)
 --><!-- Title: fbt Pages: 1 --><svg xmlns="http://www.w3.org/2000/svg" xmlns:xlink="http://www.w3.org/1999/xlink" width="710pt" height="404pt" viewBox="0.00 0.00 710.00 404.00">
<g id="graph0" class="graph" transform="scale(1 1) rotate(0) translate(4 400)">
<title>fbt</title>
<polygon fill="#ffffff" stroke="transparent" points="-4,4 -4,-400 706,-400 706,4 -4,4"/>
<!-- 0 -->
<g id="node1" class="node">
<title>0</title>
<ellipse fill="none" stroke="#000000" cx="297" cy="-378" rx="27" ry="18"/>
<text text-anchor="middle" x="297" y="-373.8" font-family="Times,serif" font-size="14.00" fill="#000000">7</text>
</g>
<!-- 1 -->
<g id="node2" class="node">
<title>1</title>
<ellipse fill="none" stroke="#000000" cx="207" cy="-306" rx="27" ry="18"/>
<text text-anchor="middle" x="207" y="-301.8" font-family="Times,serif" font-size="14.00" fill="#000000">7</text>
</g>
<!-- 0&#45;&gt;1 -->
<g id="edge1" class="edge">
<title>0-&gt;1</title>
<path fill="none" stroke="#000000" d="M279.6471,-364.1177C266.2003,-353.3602 247.3761,-338.3009 232.259,-326.2072"/>
<polygon fill="#000000" stroke="#000000" points="234.2948,-323.3536 224.2996,-319.8397 229.9219,-328.8197 234.2948,-323.3536"/>
</g>
<!-- 2 -->
<g id="node3" class="node">
<title>2</title>
<ellipse fill="none" stroke="#000000" cx="423" cy="-306" rx="27" ry="18"/>
<text text-anchor="middle" x="423" y="-301.8" font-family="Times,serif" font-size="14.00" fill="#000000">9</text>
</g>
<!-- 0&#45;&gt;2 -->
<g id="edge2" class="edge">
<title>0-&gt;2</title>
<path fill="none" stroke="#000000" d="M317.5245,-366.2717C338.2092,-354.4519 370.3287,-336.0979 393.6909,-322.7481"/>
<polygon fill="#000000" stroke="#000000" points="395.5383,-325.7236 402.4843,-317.7233 392.0653,-319.6459 395.5383,-325.7236"/>
</g>
<!-- 3 -->
<g id="node4" class="node">
<title>3</title>
<ellipse fill="none" stroke="#00ff00" cx="135" cy="-234" rx="27" ry="18"/>
<text text-anchor="middle" x="135" y="-229.8" font-family="Times,serif" font-size="14.00" fill="#000000">No</text>
</g>
<!-- 1&#45;&gt;3 -->
<g id="edge3" class="edge">
<title>1-&gt;3</title>
<path fill="none" stroke="#000000" d="M191.7307,-290.7307C181.803,-280.803 168.6847,-267.6847 157.5637,-256.5637"/>
<polygon fill="#000000" stroke="#000000" points="159.7933,-253.8436 150.2473,-249.2473 154.8436,-258.7933 159.7933,-253.8436"/>
</g>
<!-- 4 -->
<g id="node5" class="node">
<title>4</title>
<ellipse fill="none" stroke="#000000" cx="207" cy="-234" rx="27" ry="18"/>
<text text-anchor="middle" x="207" y="-229.8" font-family="Times,serif" font-size="14.00" fill="#000000">3</text>
</g>
<!-- 1&#45;&gt;4 -->
<g id="edge4" class="edge">
<title>1-&gt;4</title>
<path fill="none" stroke="#000000" d="M207,-287.8314C207,-280.131 207,-270.9743 207,-262.4166"/>
<polygon fill="#000000" stroke="#000000" points="210.5001,-262.4132 207,-252.4133 203.5001,-262.4133 210.5001,-262.4132"/>
</g>
<!-- 5 -->
<g id="node6" class="node">
<title>5</title>
<ellipse fill="none" stroke="#000000" cx="423" cy="-234" rx="27" ry="18"/>
<text text-anchor="middle" x="423" y="-229.8" font-family="Times,serif" font-size="14.00" fill="#000000">0</text>
</g>
<!-- 2&#45;&gt;5 -->
<g id="edge5" class="edge">
<title>2-&gt;5</title>
<path fill="none" stroke="#000000" d="M423,-287.8314C423,-280.131 423,-270.9743 423,-262.4166"/>
<polygon fill="#000000" stroke="#000000" points="426.5001,-262.4132 423,-252.4133 419.5001,-262.4133 426.5001,-262.4132"/>
</g>
<!-- 6 -->
<g id="node7" class="node">
<title>6</title>
<ellipse fill="none" stroke="#ff0000" cx="495" cy="-234" rx="27" ry="18"/>
<text text-anchor="middle" x="495" y="-229.8" font-family="Times,serif" font-size="14.00" fill="#000000">Yes</text>
</g>
<!-- 2&#45;&gt;6 -->
<g id="edge6" class="edge">
<title>2-&gt;6</title>
<path fill="none" stroke="#000000" d="M438.2693,-290.7307C448.197,-280.803 461.3153,-267.6847 472.4363,-256.5637"/>
<polygon fill="#000000" stroke="#000000" points="475.1564,-258.7933 479.7527,-249.2473 470.2067,-253.8436 475.1564,-258.7933"/>
</g>
<!-- 7 -->
<g id="node8" class="node">
<title>7</title>
<ellipse fill="none" stroke="#00ff00" cx="135" cy="-162" rx="27" ry="18"/>
<text text-anchor="middle" x="135" y="-157.8" font-family="Times,serif" font-size="14.00" fill="#000000">No</text>
</g>
<!-- 4&#45;&gt;7 -->
<g id="edge7" class="edge">
<title>4-&gt;7</title>
<path fill="none" stroke="#000000" d="M191.7307,-218.7307C181.803,-208.803 168.6847,-195.6847 157.5637,-184.5637"/>
<polygon fill="#000000" stroke="#000000" points="159.7933,-181.8436 150.2473,-177.2473 154.8436,-186.7933 159.7933,-181.8436"/>
</g>
<!-- 8 -->
<g id="node9" class="node">
<title>8</title>
<ellipse fill="none" stroke="#000000" cx="207" cy="-162" rx="27" ry="18"/>
<text text-anchor="middle" x="207" y="-157.8" font-family="Times,serif" font-size="14.00" fill="#000000">9</text>
</g>
<!-- 4&#45;&gt;8 -->
<g id="edge8" class="edge">
<title>4-&gt;8</title>
<path fill="none" stroke="#000000" d="M207,-215.8314C207,-208.131 207,-198.9743 207,-190.4166"/>
<polygon fill="#000000" stroke="#000000" points="210.5001,-190.4132 207,-180.4133 203.5001,-190.4133 210.5001,-190.4132"/>
</g>
<!-- 9 -->
<g id="node10" class="node">
<title>9</title>
<ellipse fill="none" stroke="#000000" cx="423" cy="-162" rx="27" ry="18"/>
<text text-anchor="middle" x="423" y="-157.8" font-family="Times,serif" font-size="14.00" fill="#000000">2</text>
</g>
<!-- 5&#45;&gt;9 -->
<g id="edge9" class="edge">
<title>5-&gt;9</title>
<path fill="none" stroke="#000000" d="M423,-215.8314C423,-208.131 423,-198.9743 423,-190.4166"/>
<polygon fill="#000000" stroke="#000000" points="426.5001,-190.4132 423,-180.4133 419.5001,-190.4133 426.5001,-190.4132"/>
</g>
<!-- 10 -->
<g id="node11" class="node">
<title>10</title>
<ellipse fill="none" stroke="#000000" cx="603" cy="-162" rx="27" ry="18"/>
<text text-anchor="middle" x="603" y="-157.8" font-family="Times,serif" font-size="14.00" fill="#000000">0</text>
</g>
<!-- 5&#45;&gt;10 -->
<g id="edge10" class="edge">
<title>5-&gt;10</title>
<path fill="none" stroke="#000000" d="M444.5278,-222.7766C449.2525,-220.4429 454.2601,-218.0669 459,-216 495.9991,-199.8658 539.5166,-183.9559 568.9513,-173.6317"/>
<polygon fill="#000000" stroke="#000000" points="570.4493,-176.8163 578.7416,-170.2217 568.1468,-170.2058 570.4493,-176.8163"/>
</g>
<!-- 11 -->
<g id="node12" class="node">
<title>11</title>
<ellipse fill="none" stroke="#000000" cx="99" cy="-90" rx="27" ry="18"/>
<text text-anchor="middle" x="99" y="-85.8" font-family="Times,serif" font-size="14.00" fill="#000000">2</text>
</g>
<!-- 8&#45;&gt;11 -->
<g id="edge11" class="edge">
<title>8-&gt;11</title>
<path fill="none" stroke="#000000" d="M187.6918,-149.1278C170.6445,-137.763 145.5981,-121.0654 126.4656,-108.3104"/>
<polygon fill="#000000" stroke="#000000" points="128.4031,-105.3956 118.1411,-102.7607 124.5201,-111.2199 128.4031,-105.3956"/>
</g>
<!-- 12 -->
<g id="node13" class="node">
<title>12</title>
<ellipse fill="none" stroke="#000000" cx="207" cy="-90" rx="27" ry="18"/>
<text text-anchor="middle" x="207" y="-85.8" font-family="Times,serif" font-size="14.00" fill="#000000">7</text>
</g>
<!-- 8&#45;&gt;12 -->
<g id="edge12" class="edge">
<title>8-&gt;12</title>
<path fill="none" stroke="#000000" d="M207,-143.8314C207,-136.131 207,-126.9743 207,-118.4166"/>
<polygon fill="#000000" stroke="#000000" points="210.5001,-118.4132 207,-108.4133 203.5001,-118.4133 210.5001,-118.4132"/>
</g>
<!-- 13 -->
<g id="node14" class="node">
<title>13</title>
<ellipse fill="none" stroke="#000000" cx="387" cy="-90" rx="27" ry="18"/>
<text text-anchor="middle" x="387" y="-85.8" font-family="Times,serif" font-size="14.00" fill="#000000">9</text>
</g>
<!-- 9&#45;&gt;13 -->
<g id="edge13" class="edge">
<title>9-&gt;13</title>
<path fill="none" stroke="#000000" d="M414.2854,-144.5708C410.0403,-136.0807 404.8464,-125.6929 400.1337,-116.2674"/>
<polygon fill="#000000" stroke="#000000" points="403.237,-114.6477 395.6343,-107.2687 396.976,-117.7782 403.237,-114.6477"/>
</g>
<!-- 14 -->
<g id="node15" class="node">
<title>14</title>
<ellipse fill="none" stroke="#000000" cx="459" cy="-90" rx="27" ry="18"/>
<text text-anchor="middle" x="459" y="-85.8" font-family="Times,serif" font-size="14.00" fill="#000000">9</text>
</g>
<!-- 9&#45;&gt;14 -->
<g id="edge14" class="edge">
<title>9-&gt;14</title>
<path fill="none" stroke="#000000" d="M431.7146,-144.5708C435.9597,-136.0807 441.1536,-125.6929 445.8663,-116.2674"/>
<polygon fill="#000000" stroke="#000000" points="449.024,-117.7782 450.3657,-107.2687 442.763,-114.6477 449.024,-117.7782"/>
</g>
<!-- 15 -->
<g id="node16" class="node">
<title>15</title>
<ellipse fill="none" stroke="#000000" cx="603" cy="-90" rx="27" ry="18"/>
<text text-anchor="middle" x="603" y="-85.8" font-family="Times,serif" font-size="14.00" fill="#000000">7</text>
</g>
<!-- 10&#45;&gt;15 -->
<g id="edge15" class="edge">
<title>10-&gt;15</title>
<path fill="none" stroke="#000000" d="M603,-143.8314C603,-136.131 603,-126.9743 603,-118.4166"/>
<polygon fill="#000000" stroke="#000000" points="606.5001,-118.4132 603,-108.4133 599.5001,-118.4133 606.5001,-118.4132"/>
</g>
<!-- 16 -->
<g id="node17" class="node">
<title>16</title>
<ellipse fill="none" stroke="#ff0000" cx="675" cy="-90" rx="27" ry="18"/>
<text text-anchor="middle" x="675" y="-85.8" font-family="Times,serif" font-size="14.00" fill="#000000">Yes</text>
</g>
<!-- 10&#45;&gt;16 -->
<g id="edge16" class="edge">
<title>10-&gt;16</title>
<path fill="none" stroke="#000000" d="M618.2693,-146.7307C628.197,-136.803 641.3153,-123.6847 652.4363,-112.5637"/>
<polygon fill="#000000" stroke="#000000" points="655.1564,-114.7933 659.7527,-105.2473 650.2067,-109.8436 655.1564,-114.7933"/>
</g>
<!-- 17 -->
<g id="node18" class="node">
<title>17</title>
<ellipse fill="none" stroke="#ff0000" cx="27" cy="-18" rx="27" ry="18"/>
<text text-anchor="middle" x="27" y="-13.8" font-family="Times,serif" font-size="14.00" fill="#000000">Yes</text>
</g>
<!-- 11&#45;&gt;17 -->
<g id="edge17" class="edge">
<title>11-&gt;17</title>
<path fill="none" stroke="#000000" d="M83.7307,-74.7307C73.803,-64.803 60.6847,-51.6847 49.5637,-40.5637"/>
<polygon fill="#000000" stroke="#000000" points="51.7933,-37.8436 42.2473,-33.2473 46.8436,-42.7933 51.7933,-37.8436"/>
</g>
<!-- 18 -->
<g id="node19" class="node">
<title>18</title>
<ellipse fill="none" stroke="#00ff00" cx="99" cy="-18" rx="27" ry="18"/>
<text text-anchor="middle" x="99" y="-13.8" font-family="Times,serif" font-size="14.00" fill="#000000">No</text>
</g>
<!-- 11&#45;&gt;18 -->
<g id="edge18" class="edge">
<title>11-&gt;18</title>
<path fill="none" stroke="#000000" d="M99,-71.8314C99,-64.131 99,-54.9743 99,-46.4166"/>
<polygon fill="#000000" stroke="#000000" points="102.5001,-46.4132 99,-36.4133 95.5001,-46.4133 102.5001,-46.4132"/>
</g>
<!-- 19 -->
<g id="node20" class="node">
<title>19</title>
<ellipse fill="none" stroke="#ff0000" cx="171" cy="-18" rx="27" ry="18"/>
<text text-anchor="middle" x="171" y="-13.8" font-family="Times,serif" font-size="14.00" fill="#000000">Yes</text>
</g>
<!-- 12&#45;&gt;19 -->
<g id="edge19" class="edge">
<title>12-&gt;19</title>
<path fill="none" stroke="#000000" d="M198.2854,-72.5708C194.0403,-64.0807 188.8464,-53.6929 184.1337,-44.2674"/>
<polygon fill="#000000" stroke="#000000" points="187.237,-42.6477 179.6343,-35.2687 180.976,-45.7782 187.237,-42.6477"/>
</g>
<!-- 20 -->
<g id="node21" class="node">
<title>20</title>
<ellipse fill="none" stroke="#ff0000" cx="243" cy="-18" rx="27" ry="18"/>
<text text-anchor="middle" x="243" y="-13.8" font-family="Times,serif" font-size="14.00" fill="#000000">Yes</text>
</g>
<!-- 12&#45;&gt;20 -->
<g id="edge20" class="edge">
<title>12-&gt;20</title>
<path fill="none" stroke="#000000" d="M215.7146,-72.5708C219.9597,-64.0807 225.1536,-53.6929 229.8663,-44.2674"/>
<polygon fill="#000000" stroke="#000000" points="233.024,-45.7782 234.3657,-35.2687 226.763,-42.6477 233.024,-45.7782"/>
</g>
<!-- 21 -->
<g id="node22" class="node">
<title>21</title>
<ellipse fill="none" stroke="#00ff00" cx="315" cy="-18" rx="27" ry="18"/>
<text text-anchor="middle" x="315" y="-13.8" font-family="Times,serif" font-size="14.00" fill="#000000">No</text>
</g>
<!-- 13&#45;&gt;21 -->
<g id="edge21" class="edge">
<title>13-&gt;21</title>
<path fill="none" stroke="#000000" d="M371.7307,-74.7307C361.803,-64.803 348.6847,-51.6847 337.5637,-40.5637"/>
<polygon fill="#000000" stroke="#000000" points="339.7933,-37.8436 330.2473,-33.2473 334.8436,-42.7933 339.7933,-37.8436"/>
</g>
<!-- 22 -->
<g id="node23" class="node">
<title>22</title>
<ellipse fill="none" stroke="#00ff00" cx="387" cy="-18" rx="27" ry="18"/>
<text text-anchor="middle" x="387" y="-13.8" font-family="Times,serif" font-size="14.00" fill="#000000">No</text>
</g>
<!-- 13&#45;&gt;22 -->
<g id="edge22" class="edge">
<title>13-&gt;22</title>
<path fill="none" stroke="#000000" d="M387,-71.8314C387,-64.131 387,-54.9743 387,-46.4166"/>
<polygon fill="#000000" stroke="#000000" points="390.5001,-46.4132 387,-36.4133 383.5001,-46.4133 390.5001,-46.4132"/>
</g>
<!-- 23 -->
<g id="node24" class="node">
<title>23</title>
<ellipse fill="none" stroke="#00ff00" cx="459" cy="-18" rx="27" ry="18"/>
<text text-anchor="middle" x="459" y="-13.8" font-family="Times,serif" font-size="14.00" fill="#000000">No</text>
</g>
<!-- 14&#45;&gt;23 -->
<g id="edge23" class="edge">
<title>14-&gt;23</title>
<path fill="none" stroke="#000000" d="M459,-71.8314C459,-64.131 459,-54.9743 459,-46.4166"/>
<polygon fill="#000000" stroke="#000000" points="462.5001,-46.4132 459,-36.4133 455.5001,-46.4133 462.5001,-46.4132"/>
</g>
<!-- 24 -->
<g id="node25" class="node">
<title>24</title>
<ellipse fill="none" stroke="#00ff00" cx="531" cy="-18" rx="27" ry="18"/>
<text text-anchor="middle" x="531" y="-13.8" font-family="Times,serif" font-size="14.00" fill="#000000">No</text>
</g>
<!-- 14&#45;&gt;24 -->
<g id="edge24" class="edge">
<title>14-&gt;24</title>
<path fill="none" stroke="#000000" d="M474.2693,-74.7307C484.197,-64.803 497.3153,-51.6847 508.4363,-40.5637"/>
<polygon fill="#000000" stroke="#000000" points="511.1564,-42.7933 515.7527,-33.2473 506.2067,-37.8436 511.1564,-42.7933"/>
</g>
<!-- 25 -->
<g id="node26" class="node">
<title>25</title>
<ellipse fill="none" stroke="#ff0000" cx="603" cy="-18" rx="27" ry="18"/>
<text text-anchor="middle" x="603" y="-13.8" font-family="Times,serif" font-size="14.00" fill="#000000">Yes</text>
</g>
<!-- 15&#45;&gt;25 -->
<g id="edge25" class="edge">
<title>15-&gt;25</title>
<path fill="none" stroke="#000000" d="M603,-71.8314C603,-64.131 603,-54.9743 603,-46.4166"/>
<polygon fill="#000000" stroke="#000000" points="606.5001,-46.4132 603,-36.4133 599.5001,-46.4133 606.5001,-46.4132"/>
</g>
<!-- 26 -->
<g id="node27" class="node">
<title>26</title>
<ellipse fill="none" stroke="#00ff00" cx="675" cy="-18" rx="27" ry="18"/>
<text text-anchor="middle" x="675" y="-13.8" font-family="Times,serif" font-size="14.00" fill="#000000">No</text>
</g>
<!-- 15&#45;&gt;26 -->
<g id="edge26" class="edge">
<title>15-&gt;26</title>
<path fill="none" stroke="#000000" d="M618.2693,-74.7307C628.197,-64.803 641.3153,-51.6847 652.4363,-40.5637"/>
<polygon fill="#000000" stroke="#000000" points="655.1564,-42.7933 659.7527,-33.2473 650.2067,-37.8436 655.1564,-42.7933"/>
</g>
</g>
</svg>