<?xml version="1.0" encoding="UTF-8" standalone="no"?><!DOCTYPE svg PUBLIC "-//W3C//DTD SVG 1.1//EN" "http://www.w3.org/Graphics/SVG/1.1/DTD/svg11.dtd"><!-- Generated by graphviz version 2.40.1 (20161225.0304)
 --><!-- Title: fbt Pages: 1 --><svg xmlns="http://www.w3.org/2000/svg" xmlns:xlink="http://www.w3.org/1999/xlink" width="890pt" height="404pt" viewBox="0.00 0.00 890.00 404.00">
<g id="graph0" class="graph" transform="scale(1 1) rotate(0) translate(4 400)">
<title>fbt</title>
<polygon fill="#ffffff" stroke="transparent" points="-4,4 -4,-400 886,-400 886,4 -4,4"/>
<!-- 0 -->
<g id="node1" class="node">
<title>0</title>
<ellipse fill="none" stroke="#000000" cx="477" cy="-378" rx="27" ry="18"/>
<text text-anchor="middle" x="477" y="-373.8" font-family="Times,serif" font-size="14.00" fill="#000000">2</text>
</g>
<!-- 1 -->
<g id="node2" class="node">
<title>1</title>
<ellipse fill="none" stroke="#000000" cx="315" cy="-306" rx="27" ry="18"/>
<text text-anchor="middle" x="315" y="-301.8" font-family="Times,serif" font-size="14.00" fill="#000000">9</text>
</g>
<!-- 0&#45;&gt;1 -->
<g id="edge1" class="edge">
<title>0-&gt;1</title>
<path fill="none" stroke="#000000" d="M454.4746,-367.9887C426.5044,-355.5575 378.6157,-334.2736 346.8838,-320.1706"/>
<polygon fill="#000000" stroke="#000000" points="348.1543,-316.9052 337.5946,-316.0421 345.3113,-323.3019 348.1543,-316.9052"/>
</g>
<!-- 2 -->
<g id="node3" class="node">
<title>2</title>
<ellipse fill="none" stroke="#000000" cx="567" cy="-306" rx="27" ry="18"/>
<text text-anchor="middle" x="567" y="-301.8" font-family="Times,serif" font-size="14.00" fill="#000000">3</text>
</g>
<!-- 0&#45;&gt;2 -->
<g id="edge2" class="edge">
<title>0-&gt;2</title>
<path fill="none" stroke="#000000" d="M494.3529,-364.1177C507.7997,-353.3602 526.6239,-338.3009 541.741,-326.2072"/>
<polygon fill="#000000" stroke="#000000" points="544.0781,-328.8197 549.7004,-319.8397 539.7052,-323.3536 544.0781,-328.8197"/>
</g>
<!-- 3 -->
<g id="node4" class="node">
<title>3</title>
<ellipse fill="none" stroke="#000000" cx="207" cy="-234" rx="27" ry="18"/>
<text text-anchor="middle" x="207" y="-229.8" font-family="Times,serif" font-size="14.00" fill="#000000">4</text>
</g>
<!-- 1&#45;&gt;3 -->
<g id="edge3" class="edge">
<title>1-&gt;3</title>
<path fill="none" stroke="#000000" d="M295.6918,-293.1278C278.6445,-281.763 253.5981,-265.0654 234.4656,-252.3104"/>
<polygon fill="#000000" stroke="#000000" points="236.4031,-249.3956 226.1411,-246.7607 232.5201,-255.2199 236.4031,-249.3956"/>
</g>
<!-- 4 -->
<g id="node5" class="node">
<title>4</title>
<ellipse fill="none" stroke="#000000" cx="315" cy="-234" rx="27" ry="18"/>
<text text-anchor="middle" x="315" y="-229.8" font-family="Times,serif" font-size="14.00" fill="#000000">9</text>
</g>
<!-- 1&#45;&gt;4 -->
<g id="edge4" class="edge">
<title>1-&gt;4</title>
<path fill="none" stroke="#000000" d="M315,-287.8314C315,-280.131 315,-270.9743 315,-262.4166"/>
<polygon fill="#000000" stroke="#000000" points="318.5001,-262.4132 315,-252.4133 311.5001,-262.4133 318.5001,-262.4132"/>
</g>
<!-- 5 -->
<g id="node6" class="node">
<title>5</title>
<ellipse fill="none" stroke="#000000" cx="567" cy="-234" rx="27" ry="18"/>
<text text-anchor="middle" x="567" y="-229.8" font-family="Times,serif" font-size="14.00" fill="#000000">4</text>
</g>
<!-- 2&#45;&gt;5 -->
<g id="edge5" class="edge">
<title>2-&gt;5</title>
<path fill="none" stroke="#000000" d="M567,-287.8314C567,-280.131 567,-270.9743 567,-262.4166"/>
<polygon fill="#000000" stroke="#000000" points="570.5001,-262.4132 567,-252.4133 563.5001,-262.4133 570.5001,-262.4132"/>
</g>
<!-- 6 -->
<g id="node7" class="node">
<title>6</title>
<ellipse fill="none" stroke="#ff0000" cx="639" cy="-234" rx="27" ry="18"/>
<text text-anchor="middle" x="639" y="-229.8" font-family="Times,serif" font-size="14.00" fill="#000000">Yes</text>
</g>
<!-- 2&#45;&gt;6 -->
<g id="edge6" class="edge">
<title>2-&gt;6</title>
<path fill="none" stroke="#000000" d="M582.2693,-290.7307C592.197,-280.803 605.3153,-267.6847 616.4363,-256.5637"/>
<polygon fill="#000000" stroke="#000000" points="619.1564,-258.7933 623.7527,-249.2473 614.2067,-253.8436 619.1564,-258.7933"/>
</g>
<!-- 7 -->
<g id="node8" class="node">
<title>7</title>
<ellipse fill="none" stroke="#000000" cx="135" cy="-162" rx="27" ry="18"/>
<text text-anchor="middle" x="135" y="-157.8" font-family="Times,serif" font-size="14.00" fill="#000000">5</text>
</g>
<!-- 3&#45;&gt;7 -->
<g id="edge7" class="edge">
<title>3-&gt;7</title>
<path fill="none" stroke="#000000" d="M191.7307,-218.7307C181.803,-208.803 168.6847,-195.6847 157.5637,-184.5637"/>
<polygon fill="#000000" stroke="#000000" points="159.7933,-181.8436 150.2473,-177.2473 154.8436,-186.7933 159.7933,-181.8436"/>
</g>
<!-- 8 -->
<g id="node9" class="node">
<title>8</title>
<ellipse fill="none" stroke="#00ff00" cx="207" cy="-162" rx="27" ry="18"/>
<text text-anchor="middle" x="207" y="-157.8" font-family="Times,serif" font-size="14.00" fill="#000000">No</text>
</g>
<!-- 3&#45;&gt;8 -->
<g id="edge8" class="edge">
<title>3-&gt;8</title>
<path fill="none" stroke="#000000" d="M207,-215.8314C207,-208.131 207,-198.9743 207,-190.4166"/>
<polygon fill="#000000" stroke="#000000" points="210.5001,-190.4132 207,-180.4133 203.5001,-190.4133 210.5001,-190.4132"/>
</g>
<!-- 9 -->
<g id="node10" class="node">
<title>9</title>
<ellipse fill="none" stroke="#000000" cx="279" cy="-162" rx="27" ry="18"/>
<text text-anchor="middle" x="279" y="-157.8" font-family="Times,serif" font-size="14.00" fill="#000000">6</text>
</g>
<!-- 4&#45;&gt;9 -->
<g id="edge9" class="edge">
<title>4-&gt;9</title>
<path fill="none" stroke="#000000" d="M306.2854,-216.5708C302.0403,-208.0807 296.8464,-197.6929 292.1337,-188.2674"/>
<polygon fill="#000000" stroke="#000000" points="295.237,-186.6477 287.6343,-179.2687 288.976,-189.7782 295.237,-186.6477"/>
</g>
<!-- 10 -->
<g id="node11" class="node">
<title>10</title>
<ellipse fill="none" stroke="#000000" cx="351" cy="-162" rx="27" ry="18"/>
<text text-anchor="middle" x="351" y="-157.8" font-family="Times,serif" font-size="14.00" fill="#000000">0</text>
</g>
<!-- 4&#45;&gt;10 -->
<g id="edge10" class="edge">
<title>4-&gt;10</title>
<path fill="none" stroke="#000000" d="M323.7146,-216.5708C327.9597,-208.0807 333.1536,-197.6929 337.8663,-188.2674"/>
<polygon fill="#000000" stroke="#000000" points="341.024,-189.7782 342.3657,-179.2687 334.763,-186.6477 341.024,-189.7782"/>
</g>
<!-- 11 -->
<g id="node12" class="node">
<title>11</title>
<ellipse fill="none" stroke="#000000" cx="567" cy="-162" rx="27" ry="18"/>
<text text-anchor="middle" x="567" y="-157.8" font-family="Times,serif" font-size="14.00" fill="#000000">7</text>
</g>
<!-- 5&#45;&gt;11 -->
<g id="edge11" class="edge">
<title>5-&gt;11</title>
<path fill="none" stroke="#000000" d="M567,-215.8314C567,-208.131 567,-198.9743 567,-190.4166"/>
<polygon fill="#000000" stroke="#000000" points="570.5001,-190.4132 567,-180.4133 563.5001,-190.4133 570.5001,-190.4132"/>
</g>
<!-- 12 -->
<g id="node13" class="node">
<title>12</title>
<ellipse fill="none" stroke="#000000" cx="675" cy="-162" rx="27" ry="18"/>
<text text-anchor="middle" x="675" y="-157.8" font-family="Times,serif" font-size="14.00" fill="#000000">2</text>
</g>
<!-- 5&#45;&gt;12 -->
<g id="edge12" class="edge">
<title>5-&gt;12</title>
<path fill="none" stroke="#000000" d="M586.3082,-221.1278C603.3555,-209.763 628.4019,-193.0654 647.5344,-180.3104"/>
<polygon fill="#000000" stroke="#000000" points="649.4799,-183.2199 655.8589,-174.7607 645.5969,-177.3956 649.4799,-183.2199"/>
</g>
<!-- 13 -->
<g id="node14" class="node">
<title>13</title>
<ellipse fill="none" stroke="#000000" cx="63" cy="-90" rx="27" ry="18"/>
<text text-anchor="middle" x="63" y="-85.8" font-family="Times,serif" font-size="14.00" fill="#000000">4</text>
</g>
<!-- 7&#45;&gt;13 -->
<g id="edge13" class="edge">
<title>7-&gt;13</title>
<path fill="none" stroke="#000000" d="M119.7307,-146.7307C109.803,-136.803 96.6847,-123.6847 85.5637,-112.5637"/>
<polygon fill="#000000" stroke="#000000" points="87.7933,-109.8436 78.2473,-105.2473 82.8436,-114.7933 87.7933,-109.8436"/>
</g>
<!-- 14 -->
<g id="node15" class="node">
<title>14</title>
<ellipse fill="none" stroke="#ff0000" cx="135" cy="-90" rx="27" ry="18"/>
<text text-anchor="middle" x="135" y="-85.8" font-family="Times,serif" font-size="14.00" fill="#000000">Yes</text>
</g>
<!-- 7&#45;&gt;14 -->
<g id="edge14" class="edge">
<title>7-&gt;14</title>
<path fill="none" stroke="#000000" d="M135,-143.8314C135,-136.131 135,-126.9743 135,-118.4166"/>
<polygon fill="#000000" stroke="#000000" points="138.5001,-118.4132 135,-108.4133 131.5001,-118.4133 138.5001,-118.4132"/>
</g>
<!-- 15 -->
<g id="node16" class="node">
<title>15</title>
<ellipse fill="none" stroke="#ff0000" cx="207" cy="-90" rx="27" ry="18"/>
<text text-anchor="middle" x="207" y="-85.8" font-family="Times,serif" font-size="14.00" fill="#000000">Yes</text>
</g>
<!-- 9&#45;&gt;15 -->
<g id="edge15" class="edge">
<title>9-&gt;15</title>
<path fill="none" stroke="#000000" d="M263.7307,-146.7307C253.803,-136.803 240.6847,-123.6847 229.5637,-112.5637"/>
<polygon fill="#000000" stroke="#000000" points="231.7933,-109.8436 222.2473,-105.2473 226.8436,-114.7933 231.7933,-109.8436"/>
</g>
<!-- 16 -->
<g id="node17" class="node">
<title>16</title>
<ellipse fill="none" stroke="#000000" cx="279" cy="-90" rx="27" ry="18"/>
<text text-anchor="middle" x="279" y="-85.8" font-family="Times,serif" font-size="14.00" fill="#000000">9</text>
</g>
<!-- 9&#45;&gt;16 -->
<g id="edge16" class="edge">
<title>9-&gt;16</title>
<path fill="none" stroke="#000000" d="M279,-143.8314C279,-136.131 279,-126.9743 279,-118.4166"/>
<polygon fill="#000000" stroke="#000000" points="282.5001,-118.4132 279,-108.4133 275.5001,-118.4133 282.5001,-118.4132"/>
</g>
<!-- 17 -->
<g id="node18" class="node">
<title>17</title>
<ellipse fill="none" stroke="#000000" cx="351" cy="-90" rx="27" ry="18"/>
<text text-anchor="middle" x="351" y="-85.8" font-family="Times,serif" font-size="14.00" fill="#000000">4</text>
</g>
<!-- 10&#45;&gt;17 -->
<g id="edge17" class="edge">
<title>10-&gt;17</title>
<path fill="none" stroke="#000000" d="M351,-143.8314C351,-136.131 351,-126.9743 351,-118.4166"/>
<polygon fill="#000000" stroke="#000000" points="354.5001,-118.4132 351,-108.4133 347.5001,-118.4133 354.5001,-118.4132"/>
</g>
<!-- 18 -->
<g id="node19" class="node">
<title>18</title>
<ellipse fill="none" stroke="#ff0000" cx="423" cy="-90" rx="27" ry="18"/>
<text text-anchor="middle" x="423" y="-85.8" font-family="Times,serif" font-size="14.00" fill="#000000">Yes</text>
</g>
<!-- 10&#45;&gt;18 -->
<g id="edge18" class="edge">
<title>10-&gt;18</title>
<path fill="none" stroke="#000000" d="M366.2693,-146.7307C376.197,-136.803 389.3153,-123.6847 400.4363,-112.5637"/>
<polygon fill="#000000" stroke="#000000" points="403.1564,-114.7933 407.7527,-105.2473 398.2067,-109.8436 403.1564,-114.7933"/>
</g>
<!-- 19 -->
<g id="node20" class="node">
<title>19</title>
<ellipse fill="none" stroke="#000000" cx="531" cy="-90" rx="27" ry="18"/>
<text text-anchor="middle" x="531" y="-85.8" font-family="Times,serif" font-size="14.00" fill="#000000">3</text>
</g>
<!-- 11&#45;&gt;19 -->
<g id="edge19" class="edge">
<title>11-&gt;19</title>
<path fill="none" stroke="#000000" d="M558.2854,-144.5708C554.0403,-136.0807 548.8464,-125.6929 544.1337,-116.2674"/>
<polygon fill="#000000" stroke="#000000" points="547.237,-114.6477 539.6343,-107.2687 540.976,-117.7782 547.237,-114.6477"/>
</g>
<!-- 20 -->
<g id="node21" class="node">
<title>20</title>
<ellipse fill="none" stroke="#00ff00" cx="603" cy="-90" rx="27" ry="18"/>
<text text-anchor="middle" x="603" y="-85.8" font-family="Times,serif" font-size="14.00" fill="#000000">No</text>
</g>
<!-- 11&#45;&gt;20 -->
<g id="edge20" class="edge">
<title>11-&gt;20</title>
<path fill="none" stroke="#000000" d="M575.7146,-144.5708C579.9597,-136.0807 585.1536,-125.6929 589.8663,-116.2674"/>
<polygon fill="#000000" stroke="#000000" points="593.024,-117.7782 594.3657,-107.2687 586.763,-114.6477 593.024,-117.7782"/>
</g>
<!-- 21 -->
<g id="node22" class="node">
<title>21</title>
<ellipse fill="none" stroke="#000000" cx="675" cy="-90" rx="27" ry="18"/>
<text text-anchor="middle" x="675" y="-85.8" font-family="Times,serif" font-size="14.00" fill="#000000">7</text>
</g>
<!-- 12&#45;&gt;21 -->
<g id="edge21" class="edge">
<title>12-&gt;21</title>
<path fill="none" stroke="#000000" d="M675,-143.8314C675,-136.131 675,-126.9743 675,-118.4166"/>
<polygon fill="#000000" stroke="#000000" points="678.5001,-118.4132 675,-108.4133 671.5001,-118.4133 678.5001,-118.4132"/>
</g>
<!-- 22 -->
<g id="node23" class="node">
<title>22</title>
<ellipse fill="none" stroke="#000000" cx="783" cy="-90" rx="27" ry="18"/>
<text text-anchor="middle" x="783" y="-85.8" font-family="Times,serif" font-size="14.00" fill="#000000">9</text>
</g>
<!-- 12&#45;&gt;22 -->
<g id="edge22" class="edge">
<title>12-&gt;22</title>
<path fill="none" stroke="#000000" d="M694.3082,-149.1278C711.3555,-137.763 736.4019,-121.0654 755.5344,-108.3104"/>
<polygon fill="#000000" stroke="#000000" points="757.4799,-111.2199 763.8589,-102.7607 753.5969,-105.3956 757.4799,-111.2199"/>
</g>
<!-- 23 -->
<g id="node24" class="node">
<title>23</title>
<ellipse fill="none" stroke="#00ff00" cx="27" cy="-18" rx="27" ry="18"/>
<text text-anchor="middle" x="27" y="-13.8" font-family="Times,serif" font-size="14.00" fill="#000000">No</text>
</g>
<!-- 13&#45;&gt;23 -->
<g id="edge23" class="edge">
<title>13-&gt;23</title>
<path fill="none" stroke="#000000" d="M54.2854,-72.5708C50.0403,-64.0807 44.8464,-53.6929 40.1337,-44.2674"/>
<polygon fill="#000000" stroke="#000000" points="43.237,-42.6477 35.6343,-35.2687 36.976,-45.7782 43.237,-42.6477"/>
</g>
<!-- 24 -->
<g id="node25" class="node">
<title>24</title>
<ellipse fill="none" stroke="#ff0000" cx="99" cy="-18" rx="27" ry="18"/>
<text text-anchor="middle" x="99" y="-13.8" font-family="Times,serif" font-size="14.00" fill="#000000">Yes</text>
</g>
<!-- 13&#45;&gt;24 -->
<g id="edge24" class="edge">
<title>13-&gt;24</title>
<path fill="none" stroke="#000000" d="M71.7146,-72.5708C75.9597,-64.0807 81.1536,-53.6929 85.8663,-44.2674"/>
<polygon fill="#000000" stroke="#000000" points="89.024,-45.7782 90.3657,-35.2687 82.763,-42.6477 89.024,-45.7782"/>
</g>
<!-- 25 -->
<g id="node26" class="node">
<title>25</title>
<ellipse fill="none" stroke="#ff0000" cx="207" cy="-18" rx="27" ry="18"/>
<text text-anchor="middle" x="207" y="-13.8" font-family="Times,serif" font-size="14.00" fill="#000000">Yes</text>
</g>
<!-- 16&#45;&gt;25 -->
<g id="edge25" class="edge">
<title>16-&gt;25</title>
<path fill="none" stroke="#000000" d="M263.7307,-74.7307C253.803,-64.803 240.6847,-51.6847 229.5637,-40.5637"/>
<polygon fill="#000000" stroke="#000000" points="231.7933,-37.8436 222.2473,-33.2473 226.8436,-42.7933 231.7933,-37.8436"/>
</g>
<!-- 26 -->
<g id="node27" class="node">
<title>26</title>
<ellipse fill="none" stroke="#00ff00" cx="279" cy="-18" rx="27" ry="18"/>
<text text-anchor="middle" x="279" y="-13.8" font-family="Times,serif" font-size="14.00" fill="#000000">No</text>
</g>
<!-- 16&#45;&gt;26 -->
<g id="edge26" class="edge">
<title>16-&gt;26</title>
<path fill="none" stroke="#000000" d="M279,-71.8314C279,-64.131 279,-54.9743 279,-46.4166"/>
<polygon fill="#000000" stroke="#000000" points="282.5001,-46.4132 279,-36.4133 275.5001,-46.4133 282.5001,-46.4132"/>
</g>
<!-- 27 -->
<g id="node28" class="node">
<title>27</title>
<ellipse fill="none" stroke="#ff0000" cx="351" cy="-18" rx="27" ry="18"/>
<text text-anchor="middle" x="351" y="-13.8" font-family="Times,serif" font-size="14.00" fill="#000000">Yes</text>
</g>
<!-- 17&#45;&gt;27 -->
<g id="edge27" class="edge">
<title>17-&gt;27</title>
<path fill="none" stroke="#000000" d="M351,-71.8314C351,-64.131 351,-54.9743 351,-46.4166"/>
<polygon fill="#000000" stroke="#000000" points="354.5001,-46.4132 351,-36.4133 347.5001,-46.4133 354.5001,-46.4132"/>
</g>
<!-- 28 -->
<g id="node29" class="node">
<title>28</title>
<ellipse fill="none" stroke="#00ff00" cx="423" cy="-18" rx="27" ry="18"/>
<text text-anchor="middle" x="423" y="-13.8" font-family="Times,serif" font-size="14.00" fill="#000000">No</text>
</g>
<!-- 17&#45;&gt;28 -->
<g id="edge28" class="edge">
<title>17-&gt;28</title>
<path fill="none" stroke="#000000" d="M366.2693,-74.7307C376.197,-64.803 389.3153,-51.6847 400.4363,-40.5637"/>
<polygon fill="#000000" stroke="#000000" points="403.1564,-42.7933 407.7527,-33.2473 398.2067,-37.8436 403.1564,-42.7933"/>
</g>
<!-- 29 -->
<g id="node30" class="node">
<title>29</title>
<ellipse fill="none" stroke="#00ff00" cx="495" cy="-18" rx="27" ry="18"/>
<text text-anchor="middle" x="495" y="-13.8" font-family="Times,serif" font-size="14.00" fill="#000000">No</text>
</g>
<!-- 19&#45;&gt;29 -->
<g id="edge29" class="edge">
<title>19-&gt;29</title>
<path fill="none" stroke="#000000" d="M522.2854,-72.5708C518.0403,-64.0807 512.8464,-53.6929 508.1337,-44.2674"/>
<polygon fill="#000000" stroke="#000000" points="511.237,-42.6477 503.6343,-35.2687 504.976,-45.7782 511.237,-42.6477"/>
</g>
<!-- 30 -->
<g id="node31" class="node">
<title>30</title>
<ellipse fill="none" stroke="#00ff00" cx="567" cy="-18" rx="27" ry="18"/>
<text text-anchor="middle" x="567" y="-13.8" font-family="Times,serif" font-size="14.00" fill="#000000">No</text>
</g>
<!-- 19&#45;&gt;30 -->
<g id="edge30" class="edge">
<title>19-&gt;30</title>
<path fill="none" stroke="#000000" d="M539.7146,-72.5708C543.9597,-64.0807 549.1536,-53.6929 553.8663,-44.2674"/>
<polygon fill="#000000" stroke="#000000" points="557.024,-45.7782 558.3657,-35.2687 550.763,-42.6477 557.024,-45.7782"/>
</g>
<!-- 31 -->
<g id="node32" class="node">
<title>31</title>
<ellipse fill="none" stroke="#00ff00" cx="639" cy="-18" rx="27" ry="18"/>
<text text-anchor="middle" x="639" y="-13.8" font-family="Times,serif" font-size="14.00" fill="#000000">No</text>
</g>
<!-- 21&#45;&gt;31 -->
<g id="edge31" class="edge">
<title>21-&gt;31</title>
<path fill="none" stroke="#000000" d="M666.2854,-72.5708C662.0403,-64.0807 656.8464,-53.6929 652.1337,-44.2674"/>
<polygon fill="#000000" stroke="#000000" points="655.237,-42.6477 647.6343,-35.2687 648.976,-45.7782 655.237,-42.6477"/>
</g>
<!-- 32 -->
<g id="node33" class="node">
<title>32</title>
<ellipse fill="none" stroke="#00ff00" cx="711" cy="-18" rx="27" ry="18"/>
<text text-anchor="middle" x="711" y="-13.8" font-family="Times,serif" font-size="14.00" fill="#000000">No</text>
</g>
<!-- 21&#45;&gt;32 -->
<g id="edge32" class="edge">
<title>21-&gt;32</title>
<path fill="none" stroke="#000000" d="M683.7146,-72.5708C687.9597,-64.0807 693.1536,-53.6929 697.8663,-44.2674"/>
<polygon fill="#000000" stroke="#000000" points="701.024,-45.7782 702.3657,-35.2687 694.763,-42.6477 701.024,-45.7782"/>
</g>
<!-- 33 -->
<g id="node34" class="node">
<title>33</title>
<ellipse fill="none" stroke="#00ff00" cx="783" cy="-18" rx="27" ry="18"/>
<text text-anchor="middle" x="783" y="-13.8" font-family="Times,serif" font-size="14.00" fill="#000000">No</text>
</g>
<!-- 22&#45;&gt;33 -->
<g id="edge33" class="edge">
<title>22-&gt;33</title>
<path fill="none" stroke="#000000" d="M783,-71.8314C783,-64.131 783,-54.9743 783,-46.4166"/>
<polygon fill="#000000" stroke="#000000" points="786.5001,-46.4132 783,-36.4133 779.5001,-46.4133 786.5001,-46.4132"/>
</g>
<!-- 34 -->
<g id="node35" class="node">
<title>34</title>
<ellipse fill="none" stroke="#ff0000" cx="855" cy="-18" rx="27" ry="18"/>
<text text-anchor="middle" x="855" y="-13.8" font-family="Times,serif" font-size="14.00" fill="#000000">Yes</text>
</g>
<!-- 22&#45;&gt;34 -->
<g id="edge34" class="edge">
<title>22-&gt;34</title>
<path fill="none" stroke="#000000" d="M798.2693,-74.7307C808.197,-64.803 821.3153,-51.6847 832.4363,-40.5637"/>
<polygon fill="#000000" stroke="#000000" points="835.1564,-42.7933 839.7527,-33.2473 830.2067,-37.8436 835.1564,-42.7933"/>
</g>
</g>
</svg>